<svg width="24" height="24" viewBox="0 0 24 24" fill="none" xmlns="http://www.w3.org/2000/svg">
<g clip-path="url(#clip0_23183_3286)">
<path opacity="0.1" d="M12 24C18.6274 24 24 18.6274 24 12C24 5.37258 18.6274 0 12 0C5.37258 0 0 5.37258 0 12C0 18.6274 5.37258 24 12 24Z" fill="#15D89F"/>
<path d="M8.30401 14.2631C8.33658 14.2292 8.37575 14.2024 8.41909 14.1842C8.46242 14.1661 8.50902 14.157 8.55601 14.1575H17.316C17.3404 14.1587 17.3643 14.1648 17.3863 14.1753C17.4084 14.1858 17.4281 14.2006 17.4444 14.2188C17.4607 14.2369 17.4732 14.2582 17.4812 14.2812C17.4893 14.3043 17.4927 14.3287 17.4912 14.3531C17.4892 14.3976 17.4718 14.44 17.442 14.4731L15.7116 16.1999C15.6447 16.2668 15.5542 16.3048 15.4596 16.3055H6.69961C6.66142 16.3086 6.62324 16.2994 6.5907 16.2791C6.55816 16.2589 6.53297 16.2288 6.51886 16.1931C6.50475 16.1575 6.50245 16.1183 6.5123 16.0813C6.52216 16.0443 6.54365 16.0114 6.57361 15.9875L8.30401 14.2631Z" fill="url(#paint0_linear_23183_3286)"/>
<path d="M8.304 7.79992C8.37067 7.73253 8.46122 7.69415 8.556 7.69312H17.316C17.3512 7.69361 17.3855 7.70443 17.4147 7.72424C17.4438 7.74406 17.4665 7.77198 17.4799 7.80456C17.4933 7.83714 17.4969 7.87294 17.4902 7.90753C17.4834 7.94211 17.4667 7.97396 17.442 7.99912L15.7116 9.73672C15.6447 9.80366 15.5542 9.8416 15.4596 9.84231H6.6996C6.65046 9.83953 6.60443 9.81738 6.57159 9.78071C6.53875 9.74405 6.52178 9.69586 6.5244 9.64672C6.52639 9.60222 6.54378 9.5598 6.5736 9.52672L8.304 7.79992Z" fill="url(#paint1_linear_23183_3286)"/>
<path d="M15.7116 11.0111C15.6789 10.9773 15.6398 10.9504 15.5965 10.9321C15.5532 10.9137 15.5066 10.9043 15.4596 10.9043H6.6996C6.65046 10.9071 6.60443 10.9292 6.57159 10.9659C6.53875 11.0026 6.52178 11.0507 6.5244 11.0999C6.52619 11.1444 6.54361 11.1869 6.5736 11.2199L8.304 12.9419C8.33669 12.9757 8.37585 13.0026 8.41914 13.0209C8.46244 13.0393 8.50898 13.0487 8.556 13.0487H17.316C17.3512 13.0482 17.3855 13.0374 17.4147 13.0176C17.4438 12.9978 17.4665 12.9698 17.4799 12.9372C17.4933 12.9047 17.4969 12.8689 17.4902 12.8343C17.4834 12.7997 17.4667 12.7679 17.442 12.7427L15.7116 11.0111Z" fill="url(#paint2_linear_23183_3286)"/>
</g>
<defs>
<linearGradient id="paint0_linear_23183_3286" x1="16.476" y1="6.65989" x2="10.41" y2="18.2759" gradientUnits="userSpaceOnUse">
<stop stop-color="#00FFA3"/>
<stop offset="1" stop-color="#DC1FFF"/>
</linearGradient>
<linearGradient id="paint1_linear_23183_3286" x1="13.8288" y1="5.27632" x2="7.76881" y2="16.8935" gradientUnits="userSpaceOnUse">
<stop stop-color="#00FFA3"/>
<stop offset="1" stop-color="#DC1FFF"/>
</linearGradient>
<linearGradient id="paint2_linear_23183_3286" x1="15.1488" y1="5.9663" x2="9.08161" y2="17.5823" gradientUnits="userSpaceOnUse">
<stop stop-color="#00FFA3"/>
<stop offset="1" stop-color="#DC1FFF"/>
</linearGradient>
<clipPath id="clip0_23183_3286">
<rect width="24" height="24" fill="white"/>
</clipPath>
</defs>
</svg>
