<svg width="11" height="9" viewBox="0 0 11 9" fill="none" xmlns="http://www.w3.org/2000/svg">
<path d="M10.4762 2H11V7H10.4762V8.5C10.4762 8.63261 10.421 8.75979 10.3228 8.85355C10.2245 8.94732 10.0913 9 9.95238 9H0.52381C0.384887 9 0.251654 8.94732 0.15342 8.85355C0.0551869 8.75979 0 8.63261 0 8.5V0.5C0 0.367392 0.0551869 0.240215 0.15342 0.146447C0.251654 0.0526784 0.384887 0 0.52381 0H9.95238C10.0913 0 10.2245 0.0526784 10.3228 0.146447C10.421 0.240215 10.4762 0.367392 10.4762 0.5V2ZM9.42857 7H6.28571C5.5911 7 4.92493 6.73661 4.43377 6.26777C3.9426 5.79893 3.66667 5.16304 3.66667 4.5C3.66667 3.83696 3.9426 3.20107 4.43377 2.73223C4.92493 2.26339 5.5911 2 6.28571 2H9.42857V1H1.04762V8H9.42857V7ZM9.95238 6V3H6.28571C5.86895 3 5.46925 3.15804 5.17455 3.43934C4.87985 3.72064 4.71429 4.10218 4.71429 4.5C4.71429 4.89782 4.87985 5.27936 5.17455 5.56066C5.46925 5.84196 5.86895 6 6.28571 6H9.95238ZM6.28571 4H7.85714V5H6.28571V4Z" fill="#15D89F"/>
</svg>
